<?xml version="1.0" encoding="UTF-8" standalone="no"?>
<svg
   version="1.0"
   width="8166.000000pt"
   height="900.000000pt"
   viewBox="0 0 8166.000000 900.000000"
   preserveAspectRatio="xMidYMid meet"
   id="svg30"
   sodipodi:docname="FABR1CATED Logo.svg"
   inkscape:version="1.1 (c68e22c387, 2021-05-23)"
   xmlns:inkscape="http://www.inkscape.org/namespaces/inkscape"
   xmlns:sodipodi="http://sodipodi.sourceforge.net/DTD/sodipodi-0.dtd"
   xmlns="http://www.w3.org/2000/svg"
   xmlns:svg="http://www.w3.org/2000/svg">
  <defs
     id="defs34" />
  <sodipodi:namedview
     id="namedview32"
     pagecolor="#505050"
     bordercolor="#eeeeee"
     borderopacity="1"
     inkscape:pageshadow="0"
     inkscape:pageopacity="0"
     inkscape:pagecheckerboard="0"
     inkscape:document-units="pt"
     showgrid="false"
     inkscape:zoom="0.081309487"
     inkscape:cx="4230.7486"
     inkscape:cy="-1432.7971"
     inkscape:window-width="2560"
     inkscape:window-height="1361"
     inkscape:window-x="-9"
     inkscape:window-y="-9"
     inkscape:window-maximized="1"
     inkscape:current-layer="svg30" />
  <metadata
     id="metadata2">
Created by potrace 1.16, written by Peter Selinger 2001-2019
</metadata>
  <g
     transform="translate(0.000000,900.000000) scale(0.100000,-0.100000)"
     fill="#000000"
     stroke="none"
     id="g28"
     style="fill:#ffffff">
    <path
       d="M32330 4540 l0 -4290 4290 0 4290 0 0 4290 0 4290 -4290 0 -4290 0 0 -4290z m4760 0 l0 -2370 -470 0 -470 0 0 2370 0 2370 470 0 470 0 0 -2370z"
       id="path4"
       style="fill:#da0024;fill-opacity:1" />
    <path
       d="M265 6918 c-3 -7 -4 -1082 -3 -2388 l3 -2375 483 -3 482 -2 0 950 0 950 1905 0 1905 0 0 485 0 485 -1905 0 -1905 0 0 470 0 470 1905 0 1905 0 -2 483 -3 482 -2383 3 c-1901 2 -2384 0 -2387 -10z"
       id="path6"
       style="fill:#ffffff" />
    <path
       d="M9711 4553 c-523 -1308 -951 -2384 -951 -2390 0 -10 116 -13 548 -13 l549 0 644 1731 c354 952 645 1725 648 1718 2 -8 291 -786 642 -1729 l638 -1715 551 -3 c522 -2 551 -1 546 15 -3 10 -432 1085 -954 2388 l-948 2370 -481 3 -481 2 -951 -2377z"
       id="path8"
       style="fill:#ffffff" />
    <path
       d="M17245 6918 c-3 -7 -4 -1082 -3 -2388 l3 -2375 1910 -3 1910 -2 477 477 478 478 0 1430 0 1430 -483 483 -482 482 -1903 0 c-1513 0 -1904 -3 -1907 -12z m3569 -1215 l236 -258 0 -212 0 -213 -950 0 -950 0 2 -482 3 -483 948 -3 947 -2 0 -232 0 -233 -232 -232 -233 -233 -1187 0 -1188 0 0 1420 0 1420 1184 0 1185 0 235 -257z"
       id="path10"
       style="fill:#ffffff" />
    <path
       d="M25740 4540 l0 -2390 485 0 485 0 0 950 0 950 473 0 472 -1 836 -947 835 -947 592 -3 c346 -1 592 2 592 7 0 5 -373 431 -829 947 l-828 939 831 5 831 5 0 1435 0 1435 -2387 3 -2388 2 0 -2390z m3810 950 l0 -470 -1420 0 -1420 0 0 470 0 470 1420 0 1420 0 0 -470z"
       id="path12"
       style="fill:#ffffff" />
    <path
       d="M42725 6918 c-3 -7 -4 -1082 -3 -2388 l3 -2375 2388 -3 2387 -2 0 485 0 485 -1905 0 -1905 0 0 1420 0 1420 1905 0 1905 0 0 485 0 485 -2385 0 c-1899 0 -2387 -3 -2390 -12z"
       id="path14"
       style="fill:#ffffff" />
    <path
       d="M53123 6918 c-12 -16 -1903 -4744 -1903 -4758 0 -7 186 -9 551 -8 l551 3 637 1715 c351 943 640 1721 642 1729 3 7 294 -766 648 -1718 l644 -1731 549 0 c358 0 548 3 548 10 0 14 -1891 4742 -1903 4758 -7 9 -116 12 -482 12 -366 0 -475 -3 -482 -12z"
       id="path16"
       style="fill:#ffffff" />
    <path
       d="M59710 6445 l0 -485 950 0 950 0 2 -1902 3 -1903 483 -3 482 -2 0 1905 0 1905 955 0 955 0 -2 483 -3 482 -2387 3 -2388 2 0 -485z"
       id="path18"
       style="fill:#ffffff" />
    <path
       d="M68207 6923 c-4 -3 -7 -222 -7 -485 l0 -478 2390 0 2390 0 -2 483 -3 482 -2381 3 c-1309 1 -2384 -1 -2387 -5z"
       id="path20"
       style="fill:#ffffff" />
    <path
       d="M76695 6918 c-3 -7 -4 -1082 -3 -2388 l3 -2375 1910 -3 1910 -2 477 477 478 478 0 1435 0 1435 -477 477 -478 478 -1908 0 c-1517 0 -1909 -3 -1912 -12z m3573 -1215 l232 -256 0 -931 0 -931 -232 -232 -233 -233 -1187 0 -1188 0 0 1420 0 1420 1188 -1 1187 0 233 -256z"
       id="path22"
       style="fill:#ffffff" />
    <path
       d="M69152 4538 l3 -483 1435 0 1435 0 3 483 2 482 -1440 0 -1440 0 2 -482z"
       id="path24"
       style="fill:#ffffff" />
    <path
       d="M68202 2638 l3 -483 2388 -3 2387 -2 0 485 0 485 -2390 0 -2390 0 2 -482z"
       id="path26"
       style="fill:#ffffff" />
  </g>
</svg>
