<svg version="1.0" xmlns="http://www.w3.org/2000/svg"
 width="200.000000pt" height="200.000000pt" viewBox="0 0 1920.000000 1920.000000"
 preserveAspectRatio="xMidYMid meet">
 
 <defs>
	<style>
		
		#logo {
		fill-dasharray: 800;
		fill-offset: 0;
		-webkit-animation: dash 2s linear forwards;
		-moz-animation: dash 2s linear forwards;
		animation: dash 2s linear forwards;
		}
		
		@-webkit-keyframes dash {
			from {
			fill-dashoffset: 800;
			}
			to {
			fill-dashoffset: 0;
			}
		}
		
	</style>
 </defs>
 
<g transform="translate(0.000000,1920.000000) scale(0.100000,-0.100000)"
fill="#DB4105" stroke="none">
<path d="M7360 16245 c-216 -40 -489 -181 -660 -341 -178 -168 -301 -398 -345
-648 -13 -79 -15 -568 -15 -4550 0 -2773 -4 -4525 -10 -4631 -6 -98 -19 -210
-31 -265 -11 -52 -24 -131 -29 -175 -28 -281 -180 -544 -441 -769 -265 -228
-428 -308 -749 -367 -166 -30 -586 -38 -788 -15 -398 46 -654 167 -908 428
-197 202 -296 377 -389 687 l-35 118 0 295 c0 222 -4 316 -15 375 -79 417
-427 817 -831 954 -125 42 -237 59 -396 59 -307 0 -559 -93 -835 -307 -181
-140 -327 -366 -390 -601 -25 -91 -27 -114 -31 -381 -8 -535 17 -697 189
-1241 132 -416 243 -674 406 -945 332 -552 753 -974 1347 -1349 251 -159 408
-231 741 -339 330 -107 681 -183 1000 -219 164 -18 875 -18 1045 0 751 80
1269 262 1839 644 569 383 1006 886 1325 1524 228 457 319 780 419 1485 l21
154 4 4650 c2 3375 0 4672 -8 4730 -32 227 -179 519 -354 703 -168 175 -392
295 -630 337 -109 19 -342 19 -446 0z"/>
<path d="M10620 16245 c-216 -40 -489 -181 -660 -341 -178 -168 -301 -398
-345 -648 -13 -79 -15 -577 -15 -4646 0 -5013 -5 -4630 61 -4816 62 -177 176
-367 295 -494 174 -185 422 -312 683 -351 121 -17 384 -6 481 20 219 59 414
177 595 359 154 154 254 327 314 541 l26 96 3 3918 2 3917 833 0 c851 -1 1091
-7 1232 -34 133 -26 434 -123 530 -171 123 -61 280 -182 402 -308 240 -250
360 -520 402 -909 16 -144 14 -477 -4 -615 -42 -327 -162 -627 -325 -815 -74
-85 -299 -293 -357 -331 -81 -51 -242 -124 -373 -168 -110 -36 -156 -45 -390
-75 -146 -19 -290 -34 -321 -34 -138 0 -351 -58 -492 -133 -158 -84 -333 -239
-427 -377 -86 -127 -160 -313 -202 -506 -33 -154 -32 -380 1 -504 71 -265 236
-527 430 -682 197 -157 389 -239 691 -293 74 -14 155 -30 180 -35 25 -6 113
-15 195 -20 263 -16 364 -29 457 -60 270 -91 487 -265 668 -537 127 -191 206
-391 251 -633 22 -114 24 -152 24 -435 0 -280 -2 -323 -23 -440 -60 -336 -166
-528 -447 -811 -82 -83 -177 -168 -210 -189 -97 -62 -250 -130 -398 -179
l-139 -46 -1767 0 c-1943 0 -1846 3 -2027 -61 -257 -91 -498 -263 -636 -456
-150 -209 -218 -426 -218 -698 0 -268 65 -473 228 -721 146 -222 350 -380 598
-463 190 -64 98 -61 1968 -61 1886 0 1927 1 2238 70 206 46 711 209 914 295
758 324 1320 801 1757 1492 388 615 572 1180 628 1932 13 181 7 888 -10 1051
-39 377 -112 673 -236 955 -24 55 -67 156 -95 224 -153 369 -385 727 -654
1008 l-89 93 80 83 c424 442 761 1107 907 1789 80 373 106 650 106 1113 0 871
-79 1236 -405 1880 -245 486 -425 745 -725 1046 -443 444 -1032 792 -1685 994
-389 120 -562 155 -1045 210 l-225 25 -1580 -1 c-1290 -1 -1594 -3 -1655 -14z"/>
</g>
</svg>
