<?xml version="1.0" encoding="UTF-8" standalone="no"?>
<!-- Created with Inkscape (http://www.inkscape.org/) -->

<svg
   version="1.1"
   id="svg2"
   width="1600"
   height="1600"
   viewBox="0 0 1600 1600"
   sodipodi:docname="TikTok_Black.svg"
   inkscape:version="1.1 (c68e22c387, 2021-05-23)"
   xmlns:inkscape="http://www.inkscape.org/namespaces/inkscape"
   xmlns:sodipodi="http://sodipodi.sourceforge.net/DTD/sodipodi-0.dtd"
   xmlns="http://www.w3.org/2000/svg"
   xmlns:svg="http://www.w3.org/2000/svg">
  <defs
     id="defs6" />
  <sodipodi:namedview
     id="namedview4"
     pagecolor="#505050"
     bordercolor="#eeeeee"
     borderopacity="1"
     inkscape:pageshadow="0"
     inkscape:pageopacity="0"
     inkscape:pagecheckerboard="0"
     showgrid="false"
     inkscape:zoom="0.545625"
     inkscape:cx="800.91638"
     inkscape:cy="800"
     inkscape:window-width="2560"
     inkscape:window-height="1361"
     inkscape:window-x="-9"
     inkscape:window-y="-9"
     inkscape:window-maximized="1"
     inkscape:current-layer="g8" />
  <g
     inkscape:groupmode="layer"
     inkscape:label="Image"
     id="g8">
    <path
       style="fill:#000000;stroke-width:3.1516"
       d="m 518.57182,1593.8956 c -70.50174,-15.5702 -164.1966,-59.5657 -215.78115,-101.3225 -61.79384,-50.0212 -106.08256,-103.3357 -141.2774,-170.0688 -38.55887,-73.1116 -55.65058,-138.315 -59.41336,-226.6561 -1.61039,-37.8112 -0.76797,-53.6739 4.88152,-91.9104 18.55721,-125.59762 63.8167,-215.56247 152.24807,-302.63186 38.13293,-37.54564 49.40803,-46.54688 86.96966,-69.43028 23.73632,-14.4606 55.21164,-31.53595 69.94532,-37.94519 81.77613,-35.57287 211.91175,-53.86709 243.59957,-34.24467 21.66925,13.4186 21.1353,9.15421 21.1353,168.79996 0,155.37905 -0.41531,159.59144 -16.79388,170.32316 -4.32582,2.83451 -25.50272,8.33977 -47.05947,12.23394 -44.19913,7.98463 -64.57711,16.73931 -91.75709,39.42026 -21.77918,18.17389 -37.42264,38.69484 -50.29751,65.97878 -9.58056,20.3027 -9.95781,22.6531 -9.96727,62.0725 v 40.9709 l 13.65891,27.315 c 35.16506,70.3225 112.66926,109.9665 183.31637,93.7675 25.01177,-5.7351 57.60182,-23.7058 79.68141,-43.9377 17.27489,-15.8294 23.93227,-24.9557 36.14298,-49.5469 l 14.96741,-30.1438 0.87627,-85.3962 c 0.4817,-46.96793 2.04972,-290.78042 3.48402,-541.80556 2.55205,-446.6273 2.74077,-456.5905 8.80267,-464.861836 C 820.26385,5.3228667 819.56003,5.4029446 977.19632,5.3975565 l 143.45418,-0.00421 11.728,7.9693925 c 15.5806,10.587251 20.3286,20.756139 22.8315,48.898156 6.4321,72.317295 23.9768,120.818765 61.5669,170.199315 53.1747,69.85315 119.6346,106.80482 211.595,117.64645 42.8944,5.05703 55.35,9.50509 64.9352,23.18909 5.7454,8.20249 6.2239,17.23225 8.1416,153.68834 l 2.0372,144.97386 -7.1049,12.37 c -4.4258,7.70525 -12.4535,15.21413 -21.2876,19.91209 -13.3722,7.11141 -16.2519,7.42947 -50.4256,5.56964 -87.9237,-4.78504 -149.4029,-17.69661 -220.374,-46.28186 -25.0029,-10.07051 -45.8264,-17.94358 -46.2743,-17.4957 -0.4477,0.44784 -1.7884,110.70375 -2.9793,245.01317 -2.0967,236.52971 -2.3953,245.51141 -9.506,285.99881 -9.6425,54.9019 -25.4313,100.2205 -52.4156,150.4477 -27.8622,51.8615 -53.7084,86.5556 -92.8894,124.6877 -38.46922,37.4388 -61.35981,54.9229 -105.47628,80.564 -46.11231,26.801 -68.3009,35.8602 -129.69521,52.9521 l -51.76252,14.4103 -84.75061,-0.3207 c -68.52355,-0.2593 -89.57802,-1.3869 -109.9633,-5.8888 z M 723.5435,1481.948 c 97.87514,-27.5785 147.89579,-58.6002 214.19173,-132.8366 41.64762,-46.6359 68.67517,-93.1808 86.29417,-148.6103 7.0008,-22.0247 14.157,-48.5543 15.9022,-58.9546 2.3655,-14.094 9.6589,-474.30983 9.683,-610.99438 0,-13.68464 1.3588,-16.69697 12.5636,-27.90183 l 12.561,-12.56091 26.1777,1.11319 c 23.5916,1.00323 27.4103,2.07365 38.6527,10.83543 16.3748,12.76161 97.8621,55.00594 125.9324,65.28541 25.8907,9.48118 75.9237,22.8822 96.1241,25.74618 7.8003,1.10591 18.0823,2.75662 22.8492,3.66826 l 8.6669,1.65751 v -71.16153 -71.16156 h -13.5909 c -17.7032,0 -58.0474,-13.78597 -103.3177,-35.3046 -27.58,-13.10969 -46.4374,-25.21128 -78.9728,-50.68036 -47.4661,-37.15675 -65.516,-56.49676 -91.8203,-98.38397 -23.5156,-37.44693 -38.6938,-73.22095 -49.9128,-117.64397 -5.0543,-20.01293 -9.5157,-36.64465 -9.9139,-36.95932 -0.398,-0.31469 -31.391,-1.55684 -68.87294,-2.76034 l -68.14894,-2.18817 -2.15285,503.66688 c -1.89496,443.37478 -2.75383,506.49628 -7.17516,527.30388 -10.02621,47.1858 -28.20866,81.2894 -65.53262,122.9137 -25.21925,28.125 -27.47019,29.8283 -67.75858,51.2699 -60.39124,32.1407 -68.61314,34.2815 -133.9431,34.8792 -54.53042,0.4987 -57.82826,0.1678 -85.09335,-8.542 -52.82168,-16.8735 -65.43796,-24.7472 -109.08825,-68.0825 -46.15062,-45.8177 -62.24602,-70.51 -76.05596,-116.6803 -11.24533,-37.5951 -13.61872,-67.3437 -9.05229,-113.4578 5.51169,-55.66035 16.96077,-86.32972 49.55908,-132.75676 21.32369,-30.36994 48.60201,-55.69373 79.5039,-73.80798 27.34167,-16.02736 68.84289,-32.95722 80.78976,-32.95722 h 7.98081 v -69.61239 -69.61234 l -13.39441,2.22417 c -51.29001,8.51695 -132.36766,42.4678 -168.82165,70.69325 -35.82454,27.73809 -72.96802,64.5834 -93.92297,93.16924 -26.08466,35.58335 -52.93185,90.55726 -66.14638,135.44574 -10.47923,35.59649 -11.23468,41.24609 -12.85665,96.12399 -2.12994,72.0654 1.44091,93.7935 25.82157,157.1175 19.78658,51.3921 33.63102,76.2784 62.49846,112.3446 54.56542,68.1731 127.33914,117.5029 208.93539,141.6274 81.44733,24.0804 141.91609,25.952 210.85683,6.5263 z"
       id="path1261" />
    <path
       style="fill:#000000;stroke-width:1.33333"
       id="path725"
       d="" />
  </g>
</svg>
