<?xml version="1.0" encoding="UTF-8" standalone="no"?>
<!-- Created with Inkscape (http://www.inkscape.org/) -->

<svg
   version="1.1"
   id="svg2"
   width="2560"
   height="2560"
   viewBox="0 0 2560 2560"
   sodipodi:docname="TikTok_Black.svg"
   inkscape:version="1.1 (c68e22c387, 2021-05-23)"
   xmlns:inkscape="http://www.inkscape.org/namespaces/inkscape"
   xmlns:sodipodi="http://sodipodi.sourceforge.net/DTD/sodipodi-0.dtd"
   xmlns="http://www.w3.org/2000/svg"
   xmlns:svg="http://www.w3.org/2000/svg">
  <defs
     id="defs6" />
  <sodipodi:namedview
     id="namedview4"
     pagecolor="#505050"
     bordercolor="#eeeeee"
     borderopacity="1"
     inkscape:pageshadow="0"
     inkscape:pageopacity="0"
     inkscape:pagecheckerboard="0"
     showgrid="false"
     inkscape:zoom="0.34101562"
     inkscape:rotation="-14"
     inkscape:cx="-256.19217"
     inkscape:cy="1669.0928"
     inkscape:window-width="2560"
     inkscape:window-height="1361"
     inkscape:window-x="-9"
     inkscape:window-y="-9"
     inkscape:window-maximized="1"
     inkscape:current-layer="g8" />
  <g
     inkscape:groupmode="layer"
     inkscape:label="Image"
     id="g8">
    <path
       style="fill:#000000;stroke-width:1.33333"
       d="m 918.66667,2531.1283 c -46,-3.203 -46,-3.203 -95.33334,-13.2543 C 774,2507.8228 774,2507.8228 726.66667,2491.4173 c -46.11987,-15.9849 -48.47094,-16.9745 -91.70751,-38.6024 -42.26929,-21.144 -46.28543,-23.4876 -84.66667,-49.4054 -37.59626,-25.3879 -42.75932,-29.379 -77.15694,-59.6424 -34.32131,-30.1963 -39.08996,-34.9632 -69.12414,-69.1004 -30.08053,-34.1899 -34.08176,-39.3687 -59.23378,-76.6667 -25.09668,-37.216 -28.52259,-43.0539 -49.22171,-83.8763 -21.90923,-43.2089 -22.49899,-44.5989 -38.77589,-91.3948 -16.5283,-47.5185 -16.5283,-47.5185 -26.68172,-96.7904 -10.15344,-49.2718 -10.15344,-49.2718 -13.70062,-101.5138 -3.54716,-52.242 -3.54716,-52.242 -0.0219,-104.6667 3.52528,-52.4247 3.52528,-52.4247 13.63814,-101.4952 10.1038,-49.0267 10.12779,-49.1139 26.76251,-97.2472 16.60227,-48.0393 16.71271,-48.3 38.8126,-91.596 20.27156,-39.7141 24.44928,-46.818 48.95361,-83.2417 25.1093,-37.3228 28.84082,-42.1523 59.45734,-76.9519 30.45737,-34.6187 35.13262,-39.2979 69.1285,-69.1868 33.90239,-29.8067 39.28768,-33.9648 76.71831,-59.2366 38.33405,-25.8817 42.38699,-28.2462 84.87148,-49.5155 43.15128,-21.603 46.14611,-22.8704 91.28171,-38.6297 46.66666,-16.2938 46.66666,-16.2938 96.66666,-26.4622 50,-10.1684 50,-10.1684 100,-13.6489 39.52479,-2.7513 54.83496,-3.2978 73.07807,-2.6083 12.69298,0.4798 23.94298,1.2042 25.00008,1.6098 1.661,0.6374 1.9219,26.1457 1.9219,187.9282 0,167.7481 -0.2135,187.1907 -2.0555,187.1907 -1.1305,0 -9.9805,-0.9754 -19.6667,-2.1675 -26.21895,-3.2269 -63.58602,-0.8731 -100.5791,6.3355 -210.78179,41.0738 -348.0616,247.1149 -305.48568,458.4986 38.23019,189.8078 211.6244,322.6648 405.45358,310.6643 180.2384,-11.1591 335.1128,-138.9768 371.5794,-306.6643 9.8642,-45.3596 9.1381,15.0987 10.7306,-893.3333 0.7836,-446.96667 1.7804,-840.41667 2.2151,-874.333333 L 1385.6489,24 h 179.1755 c 98.5465,0 179.1848,0.15 179.196,0.333333 0.013,0.183334 2.9704,17.901091 6.5761,39.372794 13.3526,79.512323 38.0695,149.375683 77.6268,219.414713 76.3018,135.09715 196.4402,238.87276 341.2194,294.74539 31.347,12.09733 42.0682,15.5125 75.224,23.96204 34.5369,8.80153 42.832,10.3988 77.6666,14.95521 l 39,5.10124 v 208.86483 208.86485 l -9,0.8608 c -36.4864,3.4897 -95.179,1.8802 -139,-3.8117 -109.6672,-14.2448 -215.791,-56.34754 -305.3333,-121.13561 -57.704,-41.7516 -113.4752,-97.75174 -152.6667,-153.29364 -8.0666,-11.432 -15.1166,-20.81144 -15.6666,-20.8432 -0.55,-0.0317 -1,232.70783 -1,517.19905 0,517.2568 0,517.2568 -3.3326,566.3334 -3.3325,49.0765 -3.3325,49.0765 -13.4549,99.0765 -10.1223,50 -10.1223,50 -26.6013,97.5424 -16.0671,46.3537 -17.0278,48.6371 -38.4283,91.3333 -20.8701,41.638 -23.3008,45.7903 -49.4381,84.4576 -25.6356,37.925 -29.6651,43.14 -59.7651,77.3518 -30.0205,34.1213 -34.84,38.9408 -68.9613,68.9613 -34.2118,30.1 -39.4268,34.1295 -77.3518,59.7651 -38.686,26.15 -42.8044,28.5604 -84.5603,49.4894 -42.9075,21.5064 -44.9594,22.369 -91.3333,38.395 C 1178,2507.6901 1178,2507.6901 1128,2517.8364 c -50,10.1461 -50,10.1461 -99.3641,13.4883 -27.1503,1.8381 -52.65026,3.2665 -56.66667,3.1742 -4.0164,-0.092 -28.00256,-1.6089 -53.30256,-3.3706 z"
       id="path1259" />
  </g>
</svg>
